<svg width="32" height="32" viewBox="0 0 32 32" fill="none" xmlns="http://www.w3.org/2000/svg">
<path fill-rule="evenodd" clip-rule="evenodd" d="M15.6694 5.61754C15.9675 5.45865 16.3256 5.46098 16.6216 5.62373L25.4818 10.4955C25.8014 10.6713 26 11.0071 26 11.3718V25.5C26 26.0523 25.5523 26.5 25 26.5H18.5C17.9477 26.5 17.5 26.0523 17.5 25.5V19.5H14.5V25.5C14.5 26.0523 14.0523 26.5 13.5 26.5H7C6.44772 26.5 6 26.0523 6 25.5V11.3718C6 11.0024 6.20364 10.6631 6.52962 10.4893L15.6694 5.61754ZM8 11.972V24.5H12.5V18.5C12.5 17.9477 12.9477 17.5 13.5 17.5H18.5C19.0523 17.5 19.5 17.9477 19.5 18.5V24.5H24V11.9631L16.1324 7.63713L8 11.972Z" fill="#adadad"/>
</svg>
