<svg width="32" height="32" viewBox="0 0 32 32" fill="none" xmlns="http://www.w3.org/2000/svg">
<path fill-rule="evenodd" clip-rule="evenodd" d="M16.6216 5.62373C16.3256 5.46098 15.9675 5.45865 15.6694 5.61754L6.52962 10.4893C6.20364 10.6631 6 11.0024 6 11.3718V25.5C6 26.0523 6.44772 26.5 7 26.5H13C13.5523 26.5 14 26.0523 14 25.5V20C14 19.7239 14.2239 19.5 14.5 19.5H17.5C17.7761 19.5 18 19.7239 18 20V25.5C18 26.0523 18.4477 26.5 19 26.5H25C25.5523 26.5 26 26.0523 26 25.5V11.3718C26 11.0071 25.8014 10.6713 25.4818 10.4955L16.6216 5.62373Z" fill="white"/>
</svg>
