<svg width="32" height="32" viewBox="0 0 32 32" fill="none" xmlns="http://www.w3.org/2000/svg">
<path fill-rule="evenodd" clip-rule="evenodd" d="M7.5 15.5C7.5 11.3579 10.8579 8 15 8C19.1421 8 22.5 11.3579 22.5 15.5C22.5 19.6421 19.1421 23 15 23C10.8579 23 7.5 19.6421 7.5 15.5ZM15 6C9.75329 6 5.5 10.2533 5.5 15.5C5.5 20.7467 9.75329 25 15 25C17.2631 25 19.3415 24.2086 20.9733 22.8875L24.7929 26.7071C25.1834 27.0976 25.8166 27.0976 26.2071 26.7071C26.5976 26.3166 26.5976 25.6834 26.2071 25.2929L22.3875 21.4733C23.7086 19.8415 24.5 17.7631 24.5 15.5C24.5 10.2533 20.2467 6 15 6Z" fill="#adadad"/>
</svg>
