<svg width="24" height="24" viewBox="0 0 24 24" fill="none" xmlns="http://www.w3.org/2000/svg">
<path fill-rule="evenodd" clip-rule="evenodd" d="M12.7071 1.29296L12.0001 0.585938L11.293 1.29288L7.79298 4.79205C7.40241 5.18252 7.40233 5.81569 7.79281 6.20626C8.18329 6.59683 8.81645 6.59691 9.20702 6.20643L11 4.41388V12C11 12.5523 11.4477 13 12 13C12.5523 13 13 12.5523 13 12V4.41428L14.7929 6.20717C15.1834 6.5977 15.8166 6.5977 16.2071 6.20717C16.5976 5.81665 16.5976 5.18349 16.2071 4.79296L12.7071 1.29296ZM4 6.99982C3.44772 6.99982 3 7.44754 3 7.99982V21.0003C3 21.5526 3.44772 22.0003 4 22.0003H20C20.5523 22.0003 21 21.5526 21 21.0003V7.99982C21 7.44754 20.5523 6.99982 20 6.99982H17V8.99982H19V20.0003H5V8.99982H7V6.99982H4Z" fill="#adadad"/>
</svg>
