<svg width="12" height="12" viewBox="0 0 12 12" fill="none" xmlns="http://www.w3.org/2000/svg">
<rect x="3" y="3" width="6" height="6" fill="white"/>
<path fill-rule="evenodd" clip-rule="evenodd" d="M1.05638 6.14125C0.978276 6.06314 0.978277 5.93651 1.05638 5.8584L2.40431 4.51047V2.60411C2.40431 2.49365 2.49386 2.40411 2.60431 2.40411H4.51067L5.85865 1.05614C5.93675 0.978032 6.06338 0.978033 6.14149 1.05614L7.48946 2.40411H9.39574C9.5062 2.40411 9.59574 2.49365 9.59574 2.60411V4.51039L10.9438 5.8584C11.0219 5.93651 11.0219 6.06314 10.9438 6.14124L9.59574 7.48926V9.39554C9.59574 9.506 9.5062 9.59554 9.39574 9.59554H7.48946L6.14149 10.9435C6.06339 11.0216 5.93675 11.0216 5.85865 10.9435L4.51068 9.59554H2.60431C2.49385 9.59554 2.40431 9.506 2.40431 9.39554V7.48918L1.05638 6.14125ZM8.21213 4.71213C8.32929 4.59497 8.32929 4.40503 8.21213 4.28787C8.09497 4.17071 7.90503 4.17071 7.78787 4.28787L5.5 6.57574L4.21213 5.28787C4.09497 5.17071 3.90503 5.17071 3.78787 5.28787C3.67071 5.40503 3.67071 5.59497 3.78787 5.71213L5.28787 7.21213C5.40503 7.32929 5.59497 7.32929 5.71213 7.21213L8.21213 4.71213Z" fill="#0D72EA"/>
</svg>
